<svg width="321" height="100" viewBox="0 0 321 91" fill="none" xmlns="http://www.w3.org/2000/svg">
<path d="M74.7625 33.0592C69.3571 25.1733 60.2827 20 50 20C33.4315 20 20 33.4314 20 50C20 52.4105 20.2843 54.7545 20.8212 57.0005L36.0983 41.7233C37.5628 40.2589 39.9372 40.2589 41.4017 41.7233L53.75 54.0717L74.7625 33.0592Z" fill="#EF2A82"/>
<path d="M78.3281 40.1002L56.4017 62.0267C54.9372 63.4911 52.5628 63.4911 51.0983 62.0267L38.75 49.6783L23.8013 64.627C28.9332 73.7993 38.7425 80 50 80C66.5686 80 80 66.5686 80 50C80 46.531 79.4112 43.1996 78.3281 40.1002Z" fill="#EF2A82"/>
<path d="M114.213 57.584H106.403L105.04 62H98.9513L107.621 38.3613H112.979L121.713 62H115.593L114.213 57.584ZM107.767 53.1842H112.849L110.3 44.9854L107.767 53.1842Z" fill="white"/>
<path d="M143.193 62H137.526L129.149 47.2908V62H123.45V38.3613H129.149L137.51 53.0706V38.3613H143.193V62Z" fill="white"/>
<path d="M160.516 57.584H152.707L151.343 62H145.255L153.924 38.3613H159.282L168.016 62H161.896L160.516 57.584ZM154.07 53.1842H159.152L156.603 44.9854L154.07 53.1842Z" fill="white"/>
<path d="M175.452 57.6165H185.372V62H169.754V38.3613H175.452V57.6165Z" fill="white"/>
<path d="M191.882 48.6221L196.234 38.3613H202.387L194.772 53.5089V62H188.993V53.5089L181.394 38.3613H187.515L191.882 48.6221Z" fill="white"/>
<path d="M222.957 42.7611H215.862V62H210.163V42.7611H203.198V38.3613H222.957V42.7611Z" fill="white"/>
<path d="M231.448 62H225.766V38.3613H231.448V62Z" fill="white"/>
<path d="M254.535 53.996C254.459 55.6412 254.015 57.0969 253.203 58.3633C252.392 59.6188 251.25 60.5929 249.778 61.2856C248.317 61.9784 246.644 62.3247 244.761 62.3247C241.655 62.3247 239.208 61.3127 237.423 59.2887C235.637 57.2647 234.744 54.4073 234.744 50.7164V49.5475C234.744 47.2312 235.144 45.2072 235.945 43.4755C236.757 41.7329 237.92 40.3907 239.436 39.4491C240.951 38.4966 242.705 38.0204 244.696 38.0204C247.564 38.0204 249.87 38.778 251.612 40.2933C253.355 41.7978 254.345 43.8759 254.583 46.5277H248.901C248.858 45.0882 248.495 44.0545 247.813 43.4268C247.131 42.799 246.092 42.4851 244.696 42.4851C243.278 42.4851 242.239 43.0155 241.579 44.0762C240.919 45.1369 240.572 46.8308 240.54 49.1578V50.8301C240.54 53.352 240.854 55.1541 241.481 56.2365C242.12 57.3188 243.213 57.86 244.761 57.86C246.071 57.86 247.072 57.5515 247.765 56.9346C248.457 56.3176 248.825 55.3381 248.869 53.996H254.535Z" fill="white"/>
<path d="M269.422 55.7169C269.422 54.8835 269.125 54.2341 268.53 53.7687C267.945 53.3033 266.911 52.8216 265.429 52.3237C263.946 51.8258 262.734 51.3442 261.792 50.8788C258.729 49.3743 257.197 47.307 257.197 44.6769C257.197 43.3672 257.576 42.2145 258.334 41.2188C259.102 40.2122 260.185 39.4329 261.581 38.8809C262.977 38.318 264.546 38.0366 266.289 38.0366C267.988 38.0366 269.509 38.3397 270.851 38.9458C272.204 39.5519 273.254 40.4178 274.001 41.5435C274.748 42.6583 275.121 43.9355 275.121 45.375H269.439C269.439 44.4117 269.141 43.6649 268.546 43.1345C267.961 42.6042 267.166 42.339 266.159 42.339C265.142 42.339 264.335 42.5663 263.74 43.0209C263.156 43.4646 262.863 44.0329 262.863 44.7256C262.863 45.3317 263.188 45.8837 263.838 46.3816C264.487 46.8687 265.629 47.3774 267.263 47.9077C268.898 48.4272 270.24 48.9901 271.29 49.5962C273.844 51.0682 275.121 53.0976 275.121 55.6844C275.121 57.7517 274.342 59.3753 272.783 60.5551C271.225 61.7348 269.087 62.3247 266.37 62.3247C264.454 62.3247 262.717 61.9838 261.159 61.3019C259.611 60.6092 258.442 59.6675 257.652 58.4769C256.873 57.2755 256.483 55.8955 256.483 54.3369H262.198C262.198 55.6033 262.522 56.5395 263.172 57.1456C263.832 57.7409 264.898 58.0386 266.37 58.0386C267.312 58.0386 268.053 57.8383 268.594 57.4379C269.146 57.0266 269.422 56.4529 269.422 55.7169Z" fill="white"/>
</svg>

