<svg width="321" height="100" viewBox="321 0 321 100" fill="none" xmlns="http://www.w3.org/2000/svg">
<path d="M399.762 33.0592C394.357 25.1733 385.283 20 375 20C358.431 20 345 33.4314 345 50C345 52.4105 345.284 54.7545 345.821 57.0005L361.098 41.7233C362.563 40.2589 364.937 40.2589 366.402 41.7233L378.75 54.0717L399.762 33.0592Z" fill="#8794BA"/>
<path d="M403.328 40.1002L381.402 62.0267C379.937 63.4911 377.563 63.4911 376.098 62.0267L363.75 49.6783L348.801 64.627C353.933 73.7993 363.743 80 375 80C391.569 80 405 66.5686 405 50C405 46.531 404.411 43.1996 403.328 40.1002Z" fill="#8794BA"/>
<path d="M439.213 57.584H431.403L430.04 62H423.951L432.621 38.3613H437.979L446.713 62H440.593L439.213 57.584ZM432.767 53.1842H437.849L435.3 44.9854L432.767 53.1842Z" fill="#8794BA"/>
<path d="M468.193 62H462.526L454.149 47.2908V62H448.45V38.3613H454.149L462.51 53.0706V38.3613H468.193V62Z" fill="#8794BA"/>
<path d="M485.516 57.584H477.707L476.343 62H470.255L478.924 38.3613H484.282L493.016 62H486.896L485.516 57.584ZM479.07 53.1842H484.152L481.603 44.9854L479.07 53.1842Z" fill="#8794BA"/>
<path d="M500.452 57.6165H510.372V62H494.754V38.3613H500.452V57.6165Z" fill="#8794BA"/>
<path d="M516.882 48.6221L521.234 38.3613H527.387L519.772 53.5089V62H513.993V53.5089L506.394 38.3613H512.515L516.882 48.6221Z" fill="#8794BA"/>
<path d="M547.957 42.7611H540.862V62H535.163V42.7611H528.198V38.3613H547.957V42.7611Z" fill="#8794BA"/>
<path d="M556.448 62H550.766V38.3613H556.448V62Z" fill="#8794BA"/>
<path d="M579.535 53.996C579.459 55.6412 579.015 57.0969 578.203 58.3633C577.392 59.6188 576.25 60.5929 574.778 61.2856C573.317 61.9784 571.644 62.3247 569.761 62.3247C566.655 62.3247 564.208 61.3127 562.423 59.2887C560.637 57.2647 559.744 54.4073 559.744 50.7164V49.5475C559.744 47.2312 560.144 45.2072 560.945 43.4755C561.757 41.7329 562.92 40.3907 564.436 39.4491C565.951 38.4966 567.705 38.0204 569.696 38.0204C572.564 38.0204 574.87 38.778 576.612 40.2933C578.355 41.7978 579.345 43.8759 579.583 46.5277H573.901C573.858 45.0882 573.495 44.0545 572.813 43.4268C572.131 42.799 571.092 42.4851 569.696 42.4851C568.278 42.4851 567.239 43.0155 566.579 44.0762C565.919 45.1369 565.572 46.8308 565.54 49.1578V50.8301C565.54 53.352 565.854 55.1541 566.481 56.2365C567.12 57.3188 568.213 57.86 569.761 57.86C571.071 57.86 572.072 57.5515 572.765 56.9346C573.457 56.3176 573.825 55.3381 573.869 53.996H579.535Z" fill="#8794BA"/>
<path d="M594.422 55.7169C594.422 54.8835 594.125 54.2341 593.53 53.7687C592.945 53.3033 591.911 52.8216 590.429 52.3237C588.946 51.8258 587.734 51.3442 586.792 50.8788C583.729 49.3743 582.197 47.307 582.197 44.6769C582.197 43.3672 582.576 42.2145 583.334 41.2188C584.102 40.2122 585.185 39.4329 586.581 38.8809C587.977 38.318 589.546 38.0366 591.289 38.0366C592.988 38.0366 594.509 38.3397 595.851 38.9458C597.204 39.5519 598.254 40.4178 599.001 41.5435C599.748 42.6583 600.121 43.9355 600.121 45.375H594.439C594.439 44.4117 594.141 43.6649 593.546 43.1345C592.961 42.6042 592.166 42.339 591.159 42.339C590.142 42.339 589.335 42.5663 588.74 43.0209C588.156 43.4646 587.863 44.0329 587.863 44.7256C587.863 45.3317 588.188 45.8837 588.838 46.3816C589.487 46.8687 590.629 47.3774 592.263 47.9077C593.898 48.4272 595.24 48.9901 596.29 49.5962C598.844 51.0682 600.121 53.0976 600.121 55.6844C600.121 57.7517 599.342 59.3753 597.783 60.5551C596.225 61.7348 594.087 62.3247 591.37 62.3247C589.454 62.3247 587.717 61.9838 586.159 61.3019C584.611 60.6092 583.442 59.6675 582.652 58.4769C581.873 57.2755 581.483 55.8955 581.483 54.3369H587.198C587.198 55.6033 587.522 56.5395 588.172 57.1456C588.832 57.7409 589.898 58.0386 591.37 58.0386C592.312 58.0386 593.053 57.8383 593.594 57.4379C594.146 57.0266 594.422 56.4529 594.422 55.7169Z" fill="#8794BA"/>
</svg>


